<?xml version="1.0" standalone="no"?>
<!DOCTYPE svg PUBLIC "-//W3C//DTD SVG 20010904//EN"
 "http://www.w3.org/TR/2001/REC-SVG-20010904/DTD/svg10.dtd">
<svg version="1.0" xmlns="http://www.w3.org/2000/svg"
 width="260.000000pt" height="260.000000pt" viewBox="0 0 260.000000 260.000000"
 preserveAspectRatio="xMidYMid meet">
<metadata>
Created by potrace 1.11, written by Peter Selinger 2001-2013
</metadata>
<g transform="translate(0.000000,260.000000) scale(0.100000,-0.100000)"
fill="#000000" stroke="none">
<path d="M297 2519 c-87 -21 -154 -74 -198 -159 l-24 -45 0 -945 c0 -941 0
-945 21 -990 30 -63 98 -126 161 -150 51 -19 79 -20 582 -20 l528 0 239 -91
c225 -86 244 -92 329 -96 85 -4 104 -1 328 56 131 34 251 68 267 76 56 29 60
44 60 221 0 227 12 215 -310 300 -180 48 -184 49 -137 56 100 14 177 72 221
167 21 45 21 56 21 731 l0 685 -27 50 c-34 64 -80 108 -143 137 l-50 23 -915
2 c-514 1 -932 -3 -953 -8z m1803 -894 l0 -615 -110 0 -109 0 -3 393 c-3 375
-4 394 -24 437 -27 57 -87 117 -144 144 -43 20 -61 21 -497 24 l-453 3 0 -146
0 -145 415 0 415 0 0 -95 0 -95 -418 0 c-485 0 -483 0 -568 -85 -77 -77 -86
-114 -82 -337 3 -206 10 -228 85 -299 76 -73 78 -73 378 -79 149 -3 262 -7
253 -8 -9 -1 -30 -16 -47 -33 -29 -29 -31 -35 -31 -110 l0 -79 -400 0 -400 0
0 870 0 870 870 0 870 0 0 -615z m-510 -495 l0 -110 -390 0 -390 0 0 110 0
110 390 0 390 0 0 -110z m384 -281 c47 -61 92 -120 100 -131 10 -14 69 -35
226 -77 276 -76 264 -64 268 -249 4 -148 -3 -182 -41 -207 -23 -15 -338 -99
-487 -131 -104 -21 -164 -7 -472 110 -374 142 -345 128 -368 178 -26 58 -29
275 -4 313 22 34 77 51 259 80 88 14 174 27 191 30 28 5 34 1 52 -27 l21 -33
-27 -7 c-15 -3 -96 -16 -179 -29 -84 -12 -153 -25 -153 -29 0 -3 87 -34 193
-69 268 -86 324 -109 347 -139 l21 -26 244 59 c135 32 245 61 245 65 0 8 -221
63 -227 56 -3 -3 0 -12 7 -21 15 -18 18 -16 -100 -45 l-85 -22 -13 21 c-8 11
-44 60 -80 108 -135 182 -223 305 -220 308 2 1 44 7 93 12 50 6 93 11 96 12 4
0 45 -49 93 -110z m-142 -161 c19 -24 60 -80 92 -125 33 -45 65 -84 73 -87 21
-9 216 43 229 60 12 15 64 10 64 -5 0 -4 -79 -26 -176 -49 l-176 -42 -35 29
c-25 20 -92 47 -229 92 -107 34 -194 66 -194 69 0 4 60 15 133 26 l132 20 0
27 c-1 23 3 27 26 27 19 0 36 -12 61 -42z"/>
<path d="M2235 449 c-110 -27 -222 -54 -250 -61 l-50 -13 -3 -128 -3 -127 43
0 c24 0 48 4 55 8 7 5 13 39 15 87 3 74 5 80 26 83 21 3 22 1 22 -76 l0 -80
28 7 c26 7 27 10 32 92 5 78 7 84 28 87 21 3 22 1 22 -77 0 -45 2 -81 4 -81 3
0 16 4 30 10 25 9 26 13 26 89 0 75 6 91 36 91 2 0 4 -36 4 -80 0 -70 2 -80
18 -80 34 0 41 15 44 94 3 71 5 80 26 87 22 8 22 7 22 -76 l0 -84 30 10 30 11
0 129 c0 117 -2 129 -17 128 -10 -1 -108 -23 -218 -50z m205 -12 c0 -32 -2
-33 -31 -29 -21 3 -40 -2 -59 -17 -17 -12 -31 -17 -35 -11 -7 11 -53 3 -72
-13 -8 -6 -14 -40 -15 -91 l-2 -81 -5 80 c-6 78 -7 80 -33 83 -19 2 -35 -5
-52 -21 -16 -16 -28 -21 -34 -15 -15 15 -71 -1 -82 -22 -6 -10 -10 -48 -10
-84 0 -64 -1 -66 -25 -66 l-26 0 3 102 3 103 235 56 c129 31 236 57 238 58 1
1 2 -14 2 -32z"/>
</g>
</svg>
